<?xml version="1.0" encoding="utf-8"?>
<!-- Generator: Adobe Illustrator 18.1.1, SVG Export Plug-In . SVG Version: 6.00 Build 0)  -->
<svg version="1.1" id="Layer_1" xmlns="http://www.w3.org/2000/svg" xmlns:xlink="http://www.w3.org/1999/xlink" x="0px" y="0px"
	 viewBox="0 123 300 54" enable-background="new 0 123 300 54" xml:space="preserve">
<g>
	<g>
		<path fill="#010101" d="M4.2,149.7h3.6c1.4,0,2.6,0.1,3.3,0.3c0.8,0.2,1.3,0.6,1.8,1.1c0.4,0.4,0.7,1,0.7,1.7
			c0,0.6-0.2,1.1-0.6,1.6c-0.3,0.4-1,0.9-1.7,1.1c0.9,0.2,1.7,0.4,2.2,0.8c0.6,0.3,0.9,0.7,1.2,1.1c0.3,0.4,0.4,0.9,0.4,1.4
			c0,1-0.6,1.9-1.6,2.6c-1.1,0.7-2.4,1.1-4.3,1.1H4.2V149.7z M6,150.9v4.1h1c1.2,0,2.2-0.1,2.8-0.2s1.1-0.4,1.4-0.8
			c0.3-0.3,0.6-0.8,0.6-1.2c0-0.6-0.3-1-0.9-1.3c-0.6-0.3-1.4-0.6-2.8-0.6H6z M6,156.2v5h2.2c1.3,0,2.3-0.1,2.9-0.2
			c0.7-0.2,1.1-0.4,1.4-0.9c0.3-0.4,0.6-0.8,0.6-1.2c0-0.6-0.2-1.1-0.8-1.6c-0.6-0.4-1.2-0.7-2.2-0.9c-0.7-0.1-1.7-0.1-3.2-0.1H6
			V156.2z"/>
		<path fill="#010101" d="M17.7,149.7h1.8v7.7c0,0.9,0,1.4,0.1,1.7c0.1,0.6,0.3,0.9,0.7,1.2c0.3,0.3,0.9,0.7,1.6,0.9
			c0.7,0.2,1.3,0.3,2.1,0.3c0.6,0,1.2-0.1,1.8-0.2c0.6-0.2,1-0.4,1.3-0.8c0.3-0.3,0.7-0.7,0.8-1.1c0.1-0.3,0.2-1,0.2-2v-7.7h1.8v7.7
			c0,1.1-0.1,2.1-0.4,2.8c-0.4,0.8-1.1,1.3-2,1.9c-1,0.6-2.1,0.8-3.4,0.8c-1.4,0-2.7-0.2-3.8-0.8c-1-0.4-1.8-1.1-2.1-2
			c-0.2-0.4-0.3-1.4-0.3-2.7C17.7,157.3,17.7,149.7,17.7,149.7z"/>
		<path fill="#010101" d="M33.4,149.7h1.8v11.6h7v1.2h-8.8V149.7z"/>
		<path fill="#010101" d="M45.7,149.7h1.8v11.6h7v1.2h-8.8C45.7,162.4,45.7,149.7,45.7,149.7z"/>
		<path fill="#010101" d="M57.8,149.7h1.8v5.4h9.3v-5.4h1.8v12.8h-1.8v-6.1h-9.3v6.1h-1.8V149.7z"/>
		<path fill="#AC162C" d="M83,149.3c2.8,0,5,0.7,6.9,1.9c1.9,1.3,2.8,2.9,2.8,4.8s-0.9,3.4-2.8,4.8c-1.9,1.3-4.1,2-6.8,2
			c-2.7,0-5-0.7-6.8-1.9c-1.9-1.3-2.8-2.9-2.8-4.7c0-1.2,0.4-2.3,1.2-3.4c0.9-1,2-1.9,3.4-2.4C79.8,149.7,81.3,149.3,83,149.3z
			 M83.1,150.7c-1.3,0-2.7,0.2-3.9,0.8c-1.2,0.4-2.1,1.1-2.8,2s-1,1.8-1,2.8c0,1.6,0.8,2.8,2.2,3.9c1.6,1,3.3,1.6,5.4,1.6
			c1.4,0,2.8-0.2,3.9-0.7c1.2-0.4,2.1-1.1,2.8-2c0.7-0.8,1-1.8,1-2.8s-0.3-1.9-1-2.8c-0.7-0.8-1.7-1.4-2.9-2
			C85.8,150.9,84.4,150.7,83.1,150.7z"/>
		<path fill="#010101" d="M95.6,149.7h3.7c2,0,3.4,0.1,4.1,0.2c1.1,0.2,2,0.6,2.7,1.1s1,1.2,1,2.1c0,0.7-0.2,1.3-0.7,1.8
			c-0.4,0.6-1.1,0.9-2,1.2c-0.9,0.2-2.1,0.3-3.7,0.3l6.6,6H105l-6.7-6h-1v6h-1.8V149.7z M97.3,150.9v4.3h3.2c1.2,0,2.1-0.1,2.8-0.2
			c0.6-0.1,1-0.4,1.3-0.8c0.3-0.3,0.4-0.8,0.4-1.2s-0.2-0.8-0.6-1.2c-0.3-0.3-0.8-0.6-1.3-0.8c-0.6-0.1-1.4-0.2-2.7-0.2h-3.2V150.9z
			"/>
		<path fill="#010101" d="M110,162.4v-12.8h0.4l12.1,9.8v-9.8h1.8v12.8h-0.4l-12-9.7v9.7H110z"/>
	</g>
	<g>
		<path fill="#231F20" d="M130,151.1c0,0.2-0.1,0.6-0.2,0.8c-0.1,0.2-0.3,0.4-0.6,0.6c-0.2,0.1-0.4,0.2-0.8,0.2
			c-0.2,0-0.6-0.1-0.8-0.2c-0.2-0.1-0.4-0.3-0.6-0.6c-0.1-0.2-0.2-0.4-0.2-0.8c0-0.2,0.1-0.6,0.2-0.8c0.1-0.2,0.3-0.4,0.6-0.6
			c0.2-0.1,0.4-0.2,0.8-0.2c0.2,0,0.6,0.1,0.8,0.2c0.2,0.1,0.4,0.3,0.6,0.6C130,150.6,130,150.9,130,151.1z M129.8,151.1
			c0-0.2-0.1-0.4-0.2-0.7c-0.1-0.2-0.2-0.3-0.4-0.4c-0.2-0.1-0.4-0.2-0.7-0.2s-0.4,0.1-0.7,0.2s-0.3,0.2-0.4,0.4
			c-0.1,0.2-0.2,0.4-0.2,0.7c0,0.2,0.1,0.4,0.2,0.7c0.1,0.2,0.2,0.3,0.4,0.4c0.2,0.1,0.4,0.2,0.7,0.2s0.4-0.1,0.7-0.2
			c0.2-0.1,0.3-0.2,0.4-0.4C129.8,151.6,129.8,151.3,129.8,151.1z M127.9,150.2h0.7c0.2,0,0.3,0,0.3,0c0.1,0,0.1,0.1,0.2,0.1
			c0,0.1,0.1,0.1,0.1,0.2s0,0.1,0,0.2l-0.1,0.1c0.1,0,0.1,0.1,0.1,0.1s0,0.1,0,0.2v0.2c0,0.1,0,0.1,0.1,0.2l0,0H129
			c0-0.1,0-0.1,0-0.2v-0.2c0-0.1,0-0.1,0-0.1s0,0-0.1-0.1c0,0-0.1,0-0.2,0h-0.4v1H128v-1.8H127.9z M128.2,150.6v0.6h0.4
			c0.1,0,0.2,0,0.2,0c0.1,0,0.1-0.1,0.1-0.2s0-0.1-0.1-0.2c0,0-0.1-0.1-0.2-0.1C128.7,150.6,128.2,150.6,128.2,150.6z"/>
	</g>
</g>
<g enable-background="new    ">
	<path fill="#36393B" d="M230.4,157.1v5.2h-1.1v-12.8h4.4c0.7,0,1.3,0.1,1.9,0.3c0.5,0.2,1,0.5,1.4,0.8c0.4,0.3,0.6,0.7,0.8,1.2
		c0.2,0.5,0.3,1,0.3,1.6c0,0.6-0.1,1.1-0.3,1.6s-0.5,0.9-0.8,1.2c-0.4,0.3-0.8,0.6-1.4,0.7s-1.2,0.3-1.9,0.3H230.4z M230.4,156.2
		h3.3c0.6,0,1.1-0.1,1.5-0.2c0.4-0.1,0.7-0.3,1-0.6s0.5-0.6,0.6-0.9c0.1-0.3,0.2-0.7,0.2-1.1c0-0.4-0.1-0.8-0.2-1.1
		c-0.1-0.4-0.3-0.7-0.6-0.9s-0.6-0.5-1-0.6c-0.4-0.2-0.9-0.2-1.5-0.2h-3.3V156.2z"/>
	<path fill="#36393B" d="M241.3,162.4h-1.1v-13.6h1.1V162.4z"/>
	<path fill="#36393B" d="M250.2,162.4c-0.1-0.2-0.1-0.4-0.1-0.6s-0.1-0.5-0.1-0.7c-0.2,0.2-0.3,0.4-0.6,0.6
		c-0.2,0.2-0.5,0.3-0.7,0.5s-0.6,0.2-0.9,0.3s-0.7,0.1-1,0.1c-0.5,0-0.9-0.1-1.3-0.2c-0.4-0.1-0.7-0.3-1-0.6s-0.5-0.5-0.6-0.9
		c-0.1-0.3-0.2-0.7-0.2-1.1c0-0.5,0.1-0.9,0.3-1.3c0.2-0.4,0.5-0.7,0.9-1c0.4-0.3,0.8-0.5,1.4-0.6c0.5-0.1,1.1-0.2,1.8-0.2h2v-1.1
		c0-0.7-0.2-1.2-0.6-1.6c-0.4-0.4-1-0.6-1.8-0.6c-0.4,0-0.7,0-1,0.2c-0.3,0.1-0.6,0.2-0.8,0.4c-0.2,0.2-0.4,0.4-0.5,0.6
		c-0.1,0.2-0.2,0.5-0.2,0.7l-1.1,0c0-0.4,0.1-0.7,0.3-1c0.2-0.3,0.4-0.6,0.7-0.9c0.3-0.3,0.7-0.5,1.2-0.6c0.5-0.2,0.9-0.2,1.5-0.2
		c0.5,0,1,0.1,1.4,0.2c0.4,0.1,0.8,0.3,1.1,0.6s0.5,0.6,0.7,1c0.2,0.4,0.3,0.8,0.3,1.4v4.6c0,0.2,0,0.3,0,0.5c0,0.2,0,0.3,0.1,0.5
		c0,0.2,0.1,0.3,0.1,0.5c0,0.1,0.1,0.3,0.1,0.4v0.1H250.2z M246.9,161.6c0.4,0,0.7,0,1.1-0.1s0.6-0.2,0.9-0.4s0.5-0.4,0.7-0.6
		c0.2-0.2,0.3-0.5,0.5-0.7v-2.1h-1.8c-0.5,0-1,0-1.5,0.1c-0.4,0.1-0.8,0.2-1.1,0.4s-0.5,0.4-0.7,0.7c-0.2,0.3-0.2,0.6-0.2,0.9
		c0,0.3,0.1,0.5,0.2,0.7s0.2,0.4,0.4,0.6c0.2,0.2,0.4,0.3,0.7,0.4S246.6,161.6,246.9,161.6z"/>
	<path fill="#36393B" d="M255.5,150.4v2.4h2v0.9h-2v6.4c0,0.3,0,0.6,0.1,0.8c0.1,0.2,0.2,0.4,0.3,0.5c0.1,0.1,0.2,0.2,0.4,0.2
		c0.2,0,0.3,0.1,0.5,0.1c0.2,0,0.3,0,0.5,0c0.1,0,0.3,0,0.4-0.1l0,0.9c-0.1,0-0.3,0.1-0.5,0.1s-0.4,0-0.6,0c-0.3,0-0.6,0-0.8-0.1
		c-0.3-0.1-0.5-0.2-0.7-0.4c-0.2-0.2-0.3-0.5-0.4-0.8c-0.1-0.3-0.2-0.7-0.2-1.2v-6.4h-1.8v-0.9h1.8v-2.4H255.5z"/>
	<path fill="#36393B" d="M260.5,162.4v-8.7h-1.6v-0.9h1.6v-1.2c0-0.5,0.1-0.9,0.2-1.3c0.1-0.4,0.3-0.7,0.6-0.9
		c0.2-0.3,0.5-0.4,0.9-0.6c0.3-0.1,0.7-0.2,1.2-0.2c0.2,0,0.4,0,0.6,0c0.2,0,0.4,0.1,0.6,0.1l-0.1,0.9c-0.1,0-0.3-0.1-0.4-0.1
		c-0.2,0-0.3,0-0.5,0c-0.6,0-1,0.2-1.4,0.5c-0.3,0.4-0.5,0.9-0.5,1.5v1.2h2.3v0.9h-2.3v8.7H260.5z"/>
	<path fill="#36393B" d="M265.1,157.4c0-0.7,0.1-1.3,0.3-1.9c0.2-0.6,0.5-1.1,0.9-1.5c0.4-0.4,0.8-0.8,1.3-1s1.1-0.4,1.7-0.4
		c0.7,0,1.2,0.1,1.8,0.4s1,0.6,1.3,1c0.4,0.4,0.7,0.9,0.9,1.5c0.2,0.6,0.3,1.2,0.3,1.9v0.3c0,0.7-0.1,1.3-0.3,1.9
		c-0.2,0.6-0.5,1.1-0.9,1.5c-0.4,0.4-0.8,0.8-1.3,1s-1.1,0.4-1.8,0.4c-0.6,0-1.2-0.1-1.8-0.4s-1-0.6-1.3-1c-0.4-0.4-0.7-0.9-0.9-1.5
		c-0.2-0.6-0.3-1.2-0.3-1.9V157.4z M266.2,157.7c0,0.5,0.1,1,0.2,1.5c0.1,0.5,0.3,0.9,0.6,1.2c0.3,0.4,0.6,0.6,1,0.9
		s0.9,0.3,1.4,0.3s1-0.1,1.4-0.3c0.4-0.2,0.7-0.5,1-0.9c0.3-0.4,0.5-0.8,0.6-1.2c0.1-0.5,0.2-1,0.2-1.5v-0.3c0-0.5-0.1-1-0.2-1.5
		c-0.1-0.5-0.3-0.9-0.6-1.2c-0.3-0.4-0.6-0.6-1-0.9c-0.4-0.2-0.9-0.3-1.4-0.3c-0.5,0-1,0.1-1.4,0.3c-0.4,0.2-0.7,0.5-1,0.9
		c-0.3,0.4-0.5,0.8-0.6,1.2c-0.1,0.5-0.2,1-0.2,1.5V157.7z"/>
	<path fill="#36393B" d="M280.2,153.7c-0.2,0-0.5-0.1-0.7-0.1c-0.4,0-0.7,0.1-1,0.2c-0.3,0.1-0.5,0.3-0.8,0.4
		c-0.2,0.2-0.4,0.4-0.6,0.7c-0.1,0.3-0.3,0.6-0.4,0.9v6.6h-1v-9.5h1l0,1.5c0.3-0.5,0.6-0.9,1.1-1.2c0.4-0.3,1-0.5,1.6-0.5
		c0.1,0,0.3,0,0.4,0s0.2,0,0.3,0.1L280.2,153.7z"/>
	<path fill="#36393B" d="M282.8,152.8l0,1.6c0.2-0.3,0.3-0.5,0.6-0.7c0.2-0.2,0.4-0.4,0.7-0.5c0.3-0.1,0.5-0.3,0.8-0.3
		c0.3-0.1,0.6-0.1,1-0.1c0.7,0,1.3,0.1,1.8,0.4c0.5,0.3,0.9,0.8,1.1,1.4c0.2-0.3,0.3-0.5,0.6-0.7c0.2-0.2,0.5-0.4,0.7-0.6
		c0.3-0.2,0.6-0.3,0.9-0.4c0.3-0.1,0.7-0.1,1.1-0.1c0.5,0,0.9,0.1,1.3,0.2c0.4,0.1,0.7,0.3,1,0.6c0.3,0.3,0.5,0.6,0.6,1.1
		c0.1,0.4,0.2,1,0.2,1.6v6.2h-1.1v-6.2c0-0.5-0.1-0.9-0.2-1.3c-0.1-0.3-0.3-0.6-0.5-0.8s-0.5-0.3-0.7-0.4c-0.3-0.1-0.6-0.1-0.9-0.1
		c-0.4,0-0.8,0.1-1.2,0.2c-0.3,0.2-0.6,0.4-0.9,0.6s-0.4,0.5-0.5,0.8c-0.1,0.3-0.2,0.6-0.2,0.9v6.3H288V156c0-0.5-0.1-0.9-0.2-1.2
		c-0.1-0.3-0.3-0.6-0.5-0.8c-0.2-0.2-0.5-0.3-0.7-0.4c-0.3-0.1-0.6-0.1-0.9-0.1c-0.4,0-0.8,0.1-1.1,0.2c-0.3,0.1-0.6,0.3-0.8,0.5
		s-0.4,0.5-0.6,0.7c-0.1,0.3-0.3,0.5-0.4,0.8v6.5h-1.1v-9.5H282.8z"/>
</g>
<linearGradient id="SVGID_1_" gradientUnits="userSpaceOnUse" x1="129.4584" y1="290.0702" x2="209.7771" y2="226.6296" gradientTransform="matrix(1.1111 0 0 -1.1111 0 456.4445)">
	<stop  offset="0.2069" style="stop-color:#F7911E"/>
	<stop  offset="0.738" style="stop-color:#D36627"/>
</linearGradient>
<path fill="url(#SVGID_1_)" d="M206.4,151.3c-0.1-8.9-7.3-16.1-16.3-16.1c-1.6,0-3.1,0.2-4.7,0.7c-3.4-6.3-10.2-10.6-18-10.6
	c-11.3,0-20.6,9.2-20.6,20.6c0,2,0.3,3.8,0.8,5.7c-5.8,0.9-10.1,5.8-10.1,11.8c0,6.6,5.3,12,12,12h55.6c6.6,0,12-5.3,12-12
	C217.1,157,212.4,151.9,206.4,151.3z"/>
<linearGradient id="SVGID_2_" gradientUnits="userSpaceOnUse" x1="138.3109" y1="284.3878" x2="187.5937" y2="243.7839" gradientTransform="matrix(1.1111 0 0 -1.1111 0 456.4445)">
	<stop  offset="0.3133" style="stop-color:#DD7027"/>
	<stop  offset="0.8931" style="stop-color:#D66F29;stop-opacity:0.1557"/>
	<stop  offset="1" style="stop-color:#D46F2A;stop-opacity:0"/>
</linearGradient>
<path fill="url(#SVGID_2_)" d="M174,133.6l39.4,32c0,0-3,7-8.6,7c-5.6,0-41.6,0-41.6,0l7.9-12.9l-1.7-9.3l-2-2.4l1.8-6L174,133.6z"
	/>
<linearGradient id="SVGID_3_" gradientUnits="userSpaceOnUse" x1="162.2755" y1="265.4595" x2="182.0755" y2="249.1463" gradientTransform="matrix(1.1111 0 0 -1.1111 0 456.4445)">
	<stop  offset="0.4256" style="stop-color:#D4632E"/>
	<stop  offset="0.6373" style="stop-color:#D4672C;stop-opacity:0.4954"/>
	<stop  offset="0.8451" style="stop-color:#D46F2A;stop-opacity:0"/>
</linearGradient>
<path fill="url(#SVGID_3_)" fill-opacity="0.61" d="M187.7,152.6l22.3,17.8c0,0-1.6,2.2-6,2.2c-5.8,0-29.2,0-29.2,0s3.7-5.3,3.7-5.7
	s9.4-6.6,9.4-6.6l-1.4-2.3l1.2-4L187.7,152.6z"/>
<path fill="#FFFFFF" d="M188.2,158.9c-1.2-0.8-1.2-0.9-1.2-0.9s1.7-2.8,0.8-5.6c-0.2,2.2-1.7,4-2.3,4.4c-0.4-0.3-3.6-2.8-3.6-2.8
	l-1-1.4l-2.7-2.1c0,0-3.8-0.9-4.9-1.3c-1.1-0.4-2.3-0.3-2.8,0.1c-1-0.2-3-1.4-0.8-5.2c2.2-3.8,4.1-7,4.2-10.6
	c-1.2,2.3-2.9,3.6-4.2,5.3c-1.4,1.7-5.1,6.8-4.2,9.3c0.9,2.6,3,3.8,3,3.8s-0.2,0.7-1,0.6c-0.8-0.1-1.9-0.9-2.8-0.8
	c0,0,1.4,0.9,0.9,1.3s-1.4,0.3-1.4,0.3s0.4,1.9,1.1,2c-2.8,1.2-5.9,3.7-7,5.8c-1.9,0.4-4.7,2.6-5.6,4.1c-1.6,0.6-6.2,2.6-9.2,4.4
	l0,0l0,0l0,0l0,0c2,1.8,4.6,2.8,7.3,2.8H176l-1.6-0.1l1.6,0.1c0.8-1.6,1.9-3.8,2.4-4.4c1.9-1.2,3.6-1.7,3.6-1.7l0.9-0.9h2.3l3.7-2.8
	C188.9,162.7,189.4,159.8,188.2,158.9z"/>
</svg>
