<?xml version="1.0" encoding="UTF-8" standalone="no"?>
<svg width="104px" height="104px" viewBox="0 0 104 104" version="1.1" xmlns="http://www.w3.org/2000/svg" xmlns:xlink="http://www.w3.org/1999/xlink" xmlns:sketch="http://www.bohemiancoding.com/sketch/ns">
    <!-- Generator: Sketch 3.2.2 (9983) - http://www.bohemiancoding.com/sketch -->
    <title>projects</title>
    <desc>Created with Sketch.</desc>
    <defs></defs>
    <g id="Page-1" stroke="none" stroke-width="1" fill="none" fill-rule="evenodd" sketch:type="MSPage">
        <g id="projects" sketch:type="MSLayerGroup" transform="translate(2.000000, 2.000000)">
            <circle id="Oval-4" stroke="#3476FF" stroke-width="3" sketch:type="MSShapeGroup" cx="50" cy="50" r="50"></circle>
            <path d="M28.5,40.5 L70.5,40.5" id="Line" stroke="#3476FF" stroke-width="3" stroke-linecap="square" sketch:type="MSShapeGroup"></path>
            <path d="M39.5,46.5 L59.5,46.5" id="Line-2" stroke="#3476FF" stroke-width="3" stroke-linecap="square" sketch:type="MSShapeGroup"></path>
            <path d="M31.5,67.5 L51.5,67.5" id="Line-3" stroke="#3476FF" stroke-width="3" stroke-linecap="square" sketch:type="MSShapeGroup"></path>
            <rect id="Rectangle-3" stroke="#3476FF" stroke-width="3" sketch:type="MSShapeGroup" x="23" y="27" width="53" height="48"></rect>
            <rect id="Rectangle-3" stroke="#3476FF" stroke-width="3" sketch:type="MSShapeGroup" x="30" y="51" width="40" height="12"></rect>
            <path d="M30.5,37 C31.8807119,37 33,35.8807119 33,34.5 C33,33.1192881 31.8807119,32 30.5,32 C29.1192881,32 28,33.1192881 28,34.5 C28,35.8807119 29.1192881,37 30.5,37 Z" id="Oval-3" fill="#3476FF" sketch:type="MSShapeGroup"></path>
            <path d="M37.5,37 C38.8807119,37 40,35.8807119 40,34.5 C40,33.1192881 38.8807119,32 37.5,32 C36.1192881,32 35,33.1192881 35,34.5 C35,35.8807119 36.1192881,37 37.5,37 Z" id="Oval-5" fill="#3476FF" sketch:type="MSShapeGroup"></path>
        </g>
    </g>
</svg>